<?xml version="1.0" encoding="utf-8"?>
<svg version="1.1" id="Layer_1" xmlns="http://www.w3.org/2000/svg" xmlns:xlink="http://www.w3.org/1999/xlink" x="0px" y="0px"
	 viewBox="0 0 357 317" style="enable-background:new 0 0 357 317;" xml:space="preserve">
<style type="text/css">
	.st0{font-family:'Georgia';}
	.st1{font-size:17px;}
	.st2{font-family:'PTMono-Regular';}
	.st3{font-size:14px;}
	.st4{fill:none;stroke:#666666;}
	.st5{fill:#66AAAA;}
	.st6{fill:none;stroke:#66AAAA;stroke-width:0.5;}
</style>
<text transform="matrix(1 0 0 1 75.6494 266)" class="st0 st1">I also wrote a book! ...</text>
<text transform="matrix(1 0 0 1 75.6494 239)" class="st2 st3">p</text>
<path class="st4" d="M68.1,221.5h183c2.2,0,4,1.8,4,4v53c0,2.2-1.8,4-4,4h-183c-2.2,0-4-1.8-4-4v-53
	C64.1,223.3,65.9,221.5,68.1,221.5z"/>
<text transform="matrix(1 0 0 1 75.6494 181.5)" class="st0 st1">Hello, I am Marijn...</text>
<text transform="matrix(1 0 0 1 75.6494 154.5)" class="st2 st3">p</text>
<path class="st4" d="M68.1,136.5h183c2.2,0,4,1.8,4,4v53c0,2.2-1.8,4-4,4h-183c-2.2,0-4-1.8-4-4v-53
	C64.1,138.3,65.9,136.5,68.1,136.5z"/>
<text transform="matrix(1 0 0 1 75.6494 96.5)" class="st0 st1">My home page</text>
<text transform="matrix(1 0 0 1 75.6494 69.5)" class="st2 st3">h1</text>
<path class="st4" d="M68.1,51.5h183c2.2,0,4,1.8,4,4v53c0,2.2-1.8,4-4,4h-183c-2.2,0-4-1.8-4-4v-53C64.1,53.3,65.9,51.5,68.1,51.5z"
	/>
<text transform="matrix(1 0 0 1 64.1494 40.5)" class="st2 st3">body</text>
<path class="st4" d="M56.1,22.5h207c2.2,0,4,1.8,4,4v264c0,2.2-1.8,4-4,4h-207c-2.2,0-4-1.8-4-4v-264C52.1,24.3,53.9,22.5,56.1,22.5
	z"/>
<text transform="matrix(1 0 0 1 12.1494 69.5)" class="st5 st2 st3">0</text>
<text transform="matrix(1 0 0 1 12.1494 154.5)" class="st5 st2 st3">1</text>
<text transform="matrix(1 0 0 1 12.1494 239)" class="st5 st2 st3">2</text>
<path class="st4" d="M4.1,45.5h24c2.2,0,4,1.8,4,4v201c0,2.2-1.8,4-4,4h-24c-2.2,0-4-1.8-4-4v-201C0.1,47.3,1.9,45.5,4.1,45.5z"/>
<path class="st6" d="M32.1,65.5h32"/>
<path class="st5" d="M64.1,65.5l-8,3l1-3l-1-3L64.1,65.5z"/>
<path class="st6" d="M32.1,150.5h32"/>
<path class="st5" d="M64.1,150.5l-8,3l1-3l-1-3L64.1,150.5z"/>
<path class="st6" d="M32.1,234.5h32"/>
<path class="st5" d="M64.1,234.5l-8,3l1-3l-1-3L64.1,234.5z"/>
<path class="st6" d="M67.1,22.5v-5c0-3.9-3.1-7-7-7h-37c-3.9,0-7,3.1-7,7v28"/>
<path class="st5" d="M16.1,45.5l-3-8l3,1l3-1L16.1,45.5z"/>
<text transform="matrix(1 0 0 1 72.1494 14.5)" class="st5 st2 st3">children</text>
<text transform="matrix(1 0 0 1 184.6494 14.5)" class="st5 st2 st3">firstElementChild</text>
<path class="st6" d="M200.1,294.5v5c0,3.9-3.1,7-7,7l0,0h-6c-3.9,0-7-3.1-7-7l0,0v-17"/>
<path class="st5" d="M180.1,282.5l3,8l-3-1l-3,1L180.1,282.5z"/>
<text transform="matrix(1 0 0 1 204.6494 311.5)" class="st5 st2 st3">lastElementChild</text>
<path class="st6" d="M75.1,136.5v-24"/>
<path class="st5" d="M75.1,112.5l3,8l-3-1l-3,1L75.1,112.5z"/>
<text transform="matrix(1 0 0 1 80.1494 129)" class="st5 st2 st3">previousElementSibling</text>
<path class="st6" d="M84.1,197.5v24"/>
<path class="st5" d="M84.1,221.5l-3-8l3,1l3-1L84.1,221.5z"/>
<text transform="matrix(1 0 0 1 89.1494 214)" class="st5 st2 st3">nextElementSibling</text>
<path class="st6" d="M255.1,167.5h19c3.9,0,7-3.1,7-7v-6c0-3.9-3.1-7-7-7l0,0h-7"/>
<path class="st5" d="M267.1,147.5l8-3l-1,3l1,3L267.1,147.5z"/>
<text transform="matrix(1 0 0 1 239.1494 184)" class="st5 st2 st3">parentElement</text>
<path class="st6" d="M181.1,22.5v-5c0-3.9-3.1-7-7-7h-6c-3.9,0-7,3.1-7,7v34"/>
<path class="st5" d="M161.1,51.5l-3-8l3,1l3-1L161.1,51.5z"/>
</svg>
